PathFileType	4	(X/Y/Z)	T1_P1_Vision_Movement_3_0-659.trc
DataRate	CameraRate	NumFrames	NumMarkers	Units	OrigDataRate	OrigDataStartFrame	OrigNumFrames
60	60	7	27	m	60	82	659
Frame#	Time	RHip			RKnee			RAnkle			RBigToe			RSmallToe			RHeel			LHip			LKnee			LAnkle			LBigToe			LSmallToe			LHeel			Neck			Head			Nose			RShoulder			RElbow			RWrist			RThumb			RIndex			RPinky			LShoulder			LElbow			LWrist			LThumb			LIndex			LPinky		
		X1	Y1	Z1	X2	Y2	Z2	X3	Y3	Z3	X4	Y4	Z4	X5	Y5	Z5	X6	Y6	Z6	X7	Y7	Z7	X8	Y8	Z8	X9	Y9	Z9	X10	Y10	Z10	X11	Y11	Z11	X12	Y12	Z12	X13	Y13	Z13	X14	Y14	Z14	X15	Y15	Z15	X16	Y16	Z16	X17	Y17	Z17	X18	Y18	Z18	X19	Y19	Z19	X20	Y20	Z20	X21	Y21	Z21	X22	Y22	Z22	X23	Y23	Z23	X24	Y24	Z24	X25	Y25	Z25	X26	Y26	Z26	X27	Y27	Z27
83	1.3833333333333333	-94.66724889138052	3857.675803129723	-626.4333343533244	246.26576867704472	3995.1460297969024	-631.0554579762157	607.0996564354244	4272.678943243146	-695.4585282696027	678.3854555466044	4172.6885589274	-644.0600964422941	674.4447746820741	4137.858210777666	-683.5310316909324	645.6243258162154	4319.352927932591	-698.4387151321777	-110.99182802587941	4056.512734450444	-509.12073380552954	216.30773486016537	4163.7646867572485	-502.328645900119	573.7047168538392	4338.686456161756	-515.5952789368862	648.6896913700187	4250.599903094617	-408.61953231346945	623.8885376257482	4288.6162223078945	-383.23796452712946	627.8498547805807	4384.422011837486	-542.9398457674642	-679.57796468861	3769.0132225509806	-582.8229544973543	-922.4088658541824	3583.386052066155	-451.9474515926955	-770.4581381255241	3620.5706057339453	-443.30548814268576	-579.2716962451426	3730.489017037985	-709.6508166095809	-319.2752505126402	3614.6308806795923	-690.3541358862891	-492.66054702100155	3527.3932519267496	-545.9565306013715	-571.4936076635744	3483.0998173481353	-456.01955652480484	-574.5983215546497	3462.408062307768	-431.153971718843	-547.2210732518644	3470.889141970646	-437.27898720596767	-631.4955361375656	3908.7598684977697	-489.7134205271003	-403.89942649695195	4119.486048833963	-453.3910831707114	-157.12683792113765	4095.7058835040034	-367.00894986810783	-20.567742224589878	4088.5619058979887	-370.451042007313	13.174070334288242	4164.364098433767	-375.3312132062026	-15.07348332016347	4158.129903104127	-342.6788171308727
84	1.4	-94.0277629497382	3829.3250895321808	-618.8169123410446	246.0689197228029	3995.1295692654935	-630.9877764398498	601.0073315376775	4268.2137511051205	-692.8796302533109	688.8249980962337	4204.440083916322	-651.0985889975161	674.5005660322531	4139.094131820512	-684.145275864113	645.6350388617697	4318.2999986064	-697.7924813624752	-116.86312190262484	4052.41219074935	-507.3370647519302	216.31430188202256	4163.4919262484345	-502.13470604560877	573.544038001043	4338.23122336533	-515.2897634280388	644.2656307574435	4219.891437115949	-402.86745819384066	623.770202984276	4288.256915159919	-383.17533891056996	627.3855051088403	4383.742372264831	-542.3741433754643	-679.6597403036637	3768.8583008753494	-582.765109229758	-922.3998323432457	3583.5162806058165	-451.9761419262335	-770.5365207281895	3620.6734624088804	-443.3183065371337	-579.2499849917763	3730.5588965024194	-709.652336452802	-318.81543728303404	3614.0869746204917	-695.9386049926148	-487.80210667700084	3528.1900604550297	-545.3935778698999	-567.9805869745037	3484.109393179081	-455.64567926892613	-565.1907521450735	3464.5042558592863	-430.31923358780676	-543.6328714341086	3448.704283796645	-431.807204929604	-631.4117195710556	3908.655001008375	-489.5263556457199	-403.91494161615606	4119.413316362034	-453.415745276808	-157.07104689548194	4095.372591608382	-366.95420367013406	-20.46436365552916	4058.848086788209	-364.6168524171264	18.68051352234532	4138.406603282796	-371.0970752207851	-14.86487128720073	4157.407181624054	-342.2710109110061
85	1.4166666666666667	-93.86622147815672	3829.3519394425175	-618.768246134428	246.06271522202655	3994.4423353800958	-630.7660500423356	607.0680504216349	4272.244656751498	-695.0946921370761	689.2131820257717	4205.2645772372925	-651.3527927646104	674.7421345030322	4139.1017615255605	-684.0698425051304	645.7999508842512	4317.3286746457015	-697.3317569396454	-116.7620841585448	4052.8115340953113	-507.40227594713923	216.438566928662	4163.513856549364	-502.3387950175096	566.5894071173827	4335.656387931507	-510.52514673752296	643.62236918465	4227.43640779642	-393.5302997606584	624.0005000943884	4289.374070061972	-383.3363545406012	633.9260185791358	4388.367861251525	-538.4432011503956	-679.4675478284545	3768.8859939425042	-582.6363773187682	-922.5045015530965	3583.4254668922463	-452.11380864193416	-770.6337455758099	3620.5089085697973	-443.3095779727149	-579.2145585278412	3730.524801102168	-709.5894180283572	-314.681258201445	3617.702581706797	-691.7049060384396	-495.74502317083784	3550.9164971305217	-551.8307415843153	-571.6156788303473	3482.8512031814544	-455.9046886909038	-568.4713445707674	3465.0912303676732	-434.9453691596271	-546.986076776975	3470.181085767305	-436.7772294731362	-631.3178126408949	3908.497942773658	-489.426916635888	-408.7847479456324	4115.677300626898	-451.8366418584111	-157.2847102661581	4095.2747593190998	-366.6409919724027	-21.234173101558962	4057.4658122633246	-363.5641415775401	12.616174430271961	4133.720582835528	-368.76604594197124	-15.78319333649194	4155.1999249377195	-335.8831533088938
86	1.4333333333333333	-93.90824505771103	3829.2566001271534	-618.7575324853442	244.13273564860148	3964.645927501082	-623.3350282080007	600.9597076704678	4268.315758124366	-692.7455968544193	683.2600980670445	4205.163134161674	-651.7253082671011	674.4408176660847	4138.838075813951	-683.9027608047894	645.7866037746736	4317.85648035377	-697.5629476029743	-116.8702260118947	4052.633332708451	-507.334060326162	215.50717383629762	4162.930163009125	-496.2230357497668	570.5160907532708	4335.247873272022	-504.34364146339175	648.438487370331	4250.523294542198	-408.65253472921233	623.744608813917	4288.672682268038	-383.2583935132127	626.3475871995471	4383.361431902774	-536.0284667572824	-679.5451690109747	3768.8195768714104	-582.6216713140587	-922.5252381453134	3583.3777520142967	-452.1539424578847	-770.7193705030217	3620.4840019305143	-443.29279900902367	-579.258340371766	3730.629769506444	-709.6232611822678	-314.69956474304456	3617.7982711621653	-691.7201411997022	-495.81318540115353	3550.8502807101345	-551.8039513955139	-571.5559566560532	3482.9400203477458	-455.85967558687196	-568.2817189503461	3464.9810618084657	-434.7490642734347	-547.0244916323869	3470.2447774656666	-436.8079382255617	-631.4055746675544	3908.636410074648	-489.5031719697289	-408.77751154364586	4115.932502305508	-451.850302320136	-157.35148451157627	4095.2324945109576	-366.52713736843907	-22.621817604053263	4059.124314397182	-363.3792858026075	12.508056595644577	4133.181108305835	-368.50099029543463	-15.876439784794615	4155.000744367723	-335.81034692042886
87	1.45	-93.91851841502391	3829.10004113415	-618.6429902199654	244.23365323882442	3964.53227029112	-623.3071853295492	599.1501698855895	4263.9574559365865	-684.4725543844446	678.3750713298862	4172.70381856048	-643.6296180348052	674.4250024754117	4137.668946222789	-683.3873847919205	645.3048894743506	4317.929648458642	-697.353542117921	-116.80938438141274	4052.570970766134	-507.3957727841605	215.57200301027885	4163.358005861641	-496.36352456379615	570.4941481603548	4335.047423816232	-504.2975838725297	643.512651280195	4227.30153209857	-393.58458611541215	623.6952351845351	4288.453468659505	-383.1109640759384	626.3327193010289	4382.8578007943615	-535.8326857501123	-679.590653827116	3768.848891392071	-582.7279961586534	-922.4679437562681	3583.3291620865466	-452.04339027103055	-770.6550150860039	3620.5537096774638	-443.2629699264671	-579.228064027905	3730.661841497264	-709.6814752451218	-314.6685206951361	3618.0268429871994	-691.8430603705791	-491.1189180310164	3552.2545093784947	-551.5001036393652	-571.1699077215684	3482.8917156766743	-455.58118349469197	-567.8351956077711	3464.989912114204	-434.4782165401912	-546.8464666166577	3470.1075830724485	-436.5723298144712	-631.4487560329815	3908.5792585907016	-489.5019800254978	-408.67377313844975	4115.948425101134	-451.8595894746423	-157.249391715505	4095.2482893201845	-366.5451492957112	-22.279534389951127	4060.1719745458126	-363.5092530534338	12.604587823996754	4133.680538403729	-368.4951634398943	-15.814352891509973	4155.064807655069	-335.78863691611866
88	1.4666666666666666	-94.6348067253713	3857.1592855871177	-626.0779432971085	244.44107167225485	3964.7872801665794	-623.3970626593335	605.3350302044272	4268.3655527171395	-687.0362734096005	678.3503322881538	4173.017813645405	-643.9899653233373	679.7384972784757	4160.892538781268	-700.3589090137976	645.406189494902	4316.481097473785	-696.669342582375	-110.92185519024616	4056.368319074435	-509.0104981685767	215.5946033834941	4163.434727568208	-496.4633615675445	570.5304332611263	4335.246586725044	-504.44036873865747	643.6244046895438	4228.048409602208	-393.7820742275912	628.5432846284479	4322.728886820985	-389.70005336061314	626.3245032378575	4382.711620624755	-535.8116419021399	-679.5858165039874	3768.658513072308	-582.5989735435505	-922.5241282263596	3583.5104192307695	-452.17107174338975	-770.7005218926382	3620.4149860519315	-443.226787280496	-579.1478508771734	3730.373690385592	-709.5842469491643	-314.6250310877183	3617.5428562628217	-691.5580040673146	-488.05421385846364	3528.2161762453234	-545.2409285113824	-571.3750371752433	3483.0349843316953	-455.93939987322875	-568.0493322655957	3463.775350732523	-430.45149524626913	-546.8901804841626	3470.3116053747617	-436.8159451428483	-631.2918050624403	3908.3720465719375	-489.3395135426955	-403.9212348838059	4119.585021687647	-453.29101750665325	-156.97275450951176	4095.5837817996485	-366.78613919571404	-22.12699634520526	4060.5401099590663	-364.0058872932898	18.44701343151528	4138.047020553982	-370.4285962165415	-15.670270604930636	4154.917314578267	-335.7128950034661
89	1.4833333333333334	-94.12513206923661	3829.187192392889	-618.6916696562637	246.17270090120627	3994.6806553477936	-630.8868591923807	607.0793919412286	4271.431964366057	-694.713123884435	689.3272896953039	4205.312712459887	-651.4041223281871	674.7494800473744	4138.601758262193	-684.0069025341847	645.7108487074717	4316.619012296822	-696.8614916471403	-116.82773762697349	4052.8033004545605	-507.44079654688045	215.68755109939815	4163.410060097447	-496.4395410659493	566.4393584149742	4335.287398574238	-510.5501716841909	643.5039381760205	4227.276618136871	-393.38060566551025	623.8390224737816	4288.886369334862	-383.1093022532121	633.6857743596572	4387.76006654085	-538.4160784849195	-684.7529751083033	3767.1531862581173	-582.7702102412866	-922.564490241231	3584.8128335797164	-458.3045468057916	-770.8985429009664	3620.787148792753	-443.37737266464705	-579.2028505411675	3730.520753479996	-709.5771326134469	-319.37569780598847	3614.67635827462	-689.997447415517	-488.11611283524314	3528.1520297828897	-545.253388114932	-568.9873803429414	3484.9835664842894	-457.2243517454803	-566.3966713173584	3466.704313012631	-436.09859322362263	-547.3578519330373	3470.610189160591	-437.3550855309002	-631.2962842414436	3908.108467477763	-489.1771373735276	-408.6659491073685	4115.838609646015	-451.8405685790596	-157.0603346818189	4095.450473006231	-366.66682585998655	-27.219764044170415	4056.820224641508	-363.7926388782406	18.401752243970723	4137.435404563372	-370.12851772916576	-14.876811440350501	4156.967037903028	-342.0771166198536
